HIERARCHY
ROOT Hips
{
	OFFSET 0.00000 0.00000 0.00000
	CHANNELS 6 Xposition Yposition Zposition Zrotation Yrotation Xrotation 
	JOINT LHipJoint
	{
		OFFSET 0 0 0
		CHANNELS 3 Zrotation Yrotation Xrotation
		JOINT LeftHip
		{
			OFFSET 1.39187 -1.60231 0.69152
			CHANNELS 3 Zrotation Yrotation Xrotation
			JOINT LeftKnee
			{
				OFFSET 2.43314 -6.68499 0.00000
				CHANNELS 3 Zrotation Yrotation Xrotation
				JOINT LeftAnkle
				{
					OFFSET 2.32059 -6.37578 0.00000
					CHANNELS 3 Zrotation Yrotation Xrotation
					JOINT LeftToe
					{
						OFFSET 0.23021 -0.63250 1.71305
						CHANNELS 3 Zrotation Yrotation Xrotation
						End Site
						{
							OFFSET 0.00000 -0.00000 0.91647
						}
					}
				}
			}
		}
	}
	JOINT RHipJoint
	{
		OFFSET 0 0 0
		CHANNELS 3 Zrotation Yrotation Xrotation
		JOINT RightHip
		{
			OFFSET -1.19407 -1.60231 0.69152
			CHANNELS 3 Zrotation Yrotation Xrotation
			JOINT RightKnee
			{
				OFFSET -2.44411 -6.71513 0.00000
				CHANNELS 3 Zrotation Yrotation Xrotation
				JOINT RightAnkle
				{
					OFFSET -2.31924 -6.37207 0.00000
					CHANNELS 3 Zrotation Yrotation Xrotation
					JOINT RightToe
					{
						OFFSET -0.19473 -0.53502 1.87724
						CHANNELS 3 Zrotation Yrotation Xrotation
						End Site
						{
							OFFSET -0.00000 -0.00000 0.98293
						}
					}
				}
			}
		}
	}
	JOINT lowerback
	{
		OFFSET 0 0 0
		CHANNELS 3 Zrotation Yrotation Xrotation
		JOINT Chest
		{
			OFFSET -0.01120 1.87307 0.09613
			CHANNELS 3 Zrotation Yrotation Xrotation
			JOINT Chest2
			{
				OFFSET 0.01099 1.87818 0.04834
				CHANNELS 3 Zrotation Yrotation Xrotation
				JOINT lowerneck
				{
					OFFSET 0 0 0
					CHANNELS 3 Zrotation Yrotation Xrotation
					JOINT Neck
					{
						OFFSET 0.01702 1.40324 -0.12579
						CHANNELS 3 Zrotation Yrotation Xrotation
						JOINT Head
						{
							OFFSET -0.04239 1.38587 -0.01614
							CHANNELS 3 Zrotation Yrotation Xrotation
							End Site
							{
								OFFSET -0.02510 1.47031 -0.00154
							}
						}
					}
				}
				JOINT LeftCollar
				{
					OFFSET 0 0 0
					CHANNELS 3 Zrotation Yrotation Xrotation
					JOINT LeftShoulder
					{
						OFFSET 2.95699 0.62343 0.11653
CHANNELS 3 Zrotation Xrotation Yrotation
						JOINT LeftElbow
						{
OFFSET 0 -4.683820 -0.000000
CHANNELS 3 Zrotation Xrotation Yrotation
							JOINT LeftWrist
							{
OFFSET 0 -2.981240 -0.000000
CHANNELS 3 Zrotation Xrotation Yrotation
								JOINT lhand
								{
									OFFSET 0 0 0
CHANNELS 3 Zrotation Xrotation Yrotation
									JOINT LFingers
									{
OFFSET 0 -0.707590 0.000000
CHANNELS 3 Zrotation Xrotation Yrotation
										End Site
										{
OFFSET 0 -0.570480 0.000000
										}
									}
								}
								JOINT LThumb
								{
OFFSET 0 0.000000 0.000000
CHANNELS 3 Zrotation Xrotation Yrotation
									End Site
									{
OFFSET 0 -0.579190 0.579190
									}
								}
							}
						}
					}
				}
				JOINT RightCollar
				{
					OFFSET 0 0 0
					CHANNELS 3 Zrotation Yrotation Xrotation
					JOINT RightShoulder
					{
						OFFSET -2.99027 0.88714 -0.02793
CHANNELS 3 Zrotation Xrotation Yrotation
						JOINT RightElbow
						{
OFFSET 0 -4.758760 -0.000000
CHANNELS 3 Zrotation Xrotation Yrotation
							JOINT RightWrist
							{
OFFSET 0 -2.932930 -0.000000
CHANNELS 3 Zrotation Xrotation Yrotation
								JOINT rhand
								{
									OFFSET 0 0 0
CHANNELS 3 Zrotation Xrotation Yrotation
									JOINT RFingers
									{
OFFSET 0 -0.831750 0.000000
CHANNELS 3 Zrotation Xrotation Yrotation
										End Site
										{
OFFSET 0 -0.670580 0.000000
										}
									}
								}
								JOINT RThumb
								{
OFFSET 0 0.000000 0.000000
CHANNELS 3 Zrotation Xrotation Yrotation
									End Site
									{
OFFSET 0 -0.680820 0.680820
									}
								}
							}
						}
					}
				}
			}
		}
	}
}
MOTION
Frames: 6
Frame Time: 0.008333333333333333
45.900600 16.534100 -0.890100 -174.464000 -75.590400 -169.241000 0.000000 0.000000 0.000000 -12.917600 -21.126400 -19.807500 2.462900 9.770200 28.235700 0.867800 8.053700 -22.287200 0.015100 -0.794400 -2.183300 0.000000 0.000000 0.000000 20.115500 9.991700 -17.517000 -1.966300 -8.795400 25.157500 0.027400 -11.384300 -15.806600 -0.506500 4.562300 -12.664100 -4.476900 0.956200 -13.481600 0.549500 1.704800 -3.142000 3.385000 0.739100 4.085500 -4.203600 -1.268800 5.302800 3.580300 -1.802800 -7.050000 1.996500 -0.928500 -3.144000 0.000000 0.000000 0.000000 -3.393100 -2.955800 12.598600 8.401400 -14.201400 1.048400 8.341500 50.877500 -22.434900 0.000000 0.000000 0.000000 -7.125000 0.000000 0.000000 -20.737900 51.432600 3.409200 0.000000 0.000000 0.000000 2.387400 -0.442800 -5.146500 -9.576200 -16.073900 -1.355200 -15.608000 27.254600 -13.403000 0.000000 0.000000 0.000000 7.125000 0.000000 -0.000000 8.074500 16.173000 5.562000
45.914354 16.535463 -0.941668 -174.321299 -75.609290 -169.503821 0.000000 0.000000 0.000000 -12.713987 -21.147175 -19.677162 2.473564 9.789715 28.298407 0.860295 8.227941 -22.358777 0.017339 -0.849307 -2.334301 0.000000 0.000000 0.000000 20.437307 9.988344 -17.088045 -1.888418 -8.629585 24.643355 0.055538 -11.613341 -15.727566 -0.480679 4.445780 -12.334226 -5.232768 1.026144 -12.186731 1.007081 1.771008 -3.869750 4.250403 0.820934 2.564905 -4.584480 -1.330403 5.596346 3.338783 -1.945336 -6.440289 1.984082 -0.981854 -2.984834 0.000000 0.000000 0.000000 -4.337225 -1.535423 14.791673 8.236189 -13.934927 1.008411 8.544057 53.236357 -21.956107 0.000000 0.000000 0.000000 -7.125000 0.000000 0.000000 -20.308265 51.016815 3.120363 0.000000 0.000000 0.000000 1.482601 1.105154 -3.257696 -9.977264 -16.703995 -1.468434 -15.528224 25.274143 -12.581623 0.000000 0.000000 0.000000 7.125000 0.000000 0.000000 8.129012 17.019201 5.449288
45.925898 16.536075 -0.990758 -174.356927 -75.739216 -169.491828 0.000000 0.000000 0.000000 -12.564403 -21.082867 -19.696488 2.482325 9.805699 28.349898 0.866711 8.192780 -22.388245 0.029051 -1.100167 -3.024548 0.000000 0.000000 0.000000 20.668655 10.108233 -16.765525 -1.828641 -8.499655 24.242212 0.115869 -12.122753 -15.597551 -0.494610 4.508534 -12.512112 -4.609039 1.070370 -13.623972 0.518624 1.902470 -2.857836 3.469755 0.826009 4.442057 -4.443529 -1.265104 5.388321 3.891584 -1.796280 -7.375240 2.153004 -0.931128 -3.271589 0.000000 0.000000 0.000000 -3.749804 -3.010807 17.164470 7.885222 -13.366664 0.925438 8.562877 55.474968 -22.499264 0.000000 0.000000 0.000000 -7.125000 0.000000 0.000000 -20.561120 51.529123 3.427964 0.000000 0.000000 0.000000 2.148399 -0.503048 -3.369143 -9.936387 -16.639991 -1.456664 -15.711777 25.454462 -12.510177 0.000000 0.000000 0.000000 7.125000 0.000000 0.000000 8.001993 17.078925 5.352186
45.945746 16.537225 -1.038953 -174.203811 -75.922334 -169.574731 0.000000 0.000000 0.000000 -12.255637 -21.111417 -19.853356 2.481475 9.804149 28.344797 0.863199 8.118745 -22.297449 0.032988 -1.172818 -3.224502 0.000000 0.000000 0.000000 20.941463 10.272648 -16.566439 -1.781624 -8.395532 23.922120 0.118822 -12.330528 -15.880638 -0.407747 4.098850 -11.354926 -4.555732 1.029280 -13.601308 0.519225 1.832269 -2.962144 3.425792 0.795099 4.327662 -4.477318 -1.219472 5.536137 3.793307 -1.750349 -7.296198 2.125365 -0.903892 -3.275194 0.000000 0.000000 0.000000 -3.911691 -2.683823 20.132796 7.604290 -12.909414 0.861624 8.800706 58.133790 -22.278013 0.000000 0.000000 0.000000 -7.125000 0.000000 0.000000 -20.224926 51.360486 3.282023 0.000000 0.000000 0.000000 1.967019 -0.418180 -3.805324 -9.823164 -16.462404 -1.424432 -15.318245 25.938081 -13.515630 0.000000 0.000000 0.000000 7.125000 0.000000 0.000000 8.273765 16.080815 5.718817
45.963954 16.534348 -1.085418 -174.128487 -75.921233 -169.647686 0.000000 0.000000 0.000000 -12.029994 -20.889746 -19.982339 2.480299 9.801998 28.337894 0.882801 7.925030 -22.319834 0.042805 -1.333784 -3.667680 0.000000 0.000000 0.000000 21.177962 10.452197 -16.326606 -1.732831 -8.285757 23.585418 0.138608 -12.531156 -15.901427 -0.381585 3.966721 -10.983127 -4.662866 1.121297 -13.450026 0.534135 1.955107 -3.069549 3.514795 0.861333 4.115824 -4.422561 -1.308373 5.656696 3.692083 -1.876593 -7.233866 2.087485 -0.964495 -3.271190 0.000000 0.000000 0.000000 -4.071937 -2.413196 22.888255 7.355216 -12.502363 0.806832 8.925508 60.794750 -22.610865 0.000000 0.000000 0.000000 -7.125000 0.000000 0.000000 -20.273651 51.693609 3.460615 0.000000 0.000000 0.000000 1.862216 -0.086775 -3.355358 -9.969424 -16.691738 -1.466157 -15.242674 25.477277 -13.767014 0.000000 0.000000 0.000000 7.125000 0.000000 0.000000 8.326102 15.830289 5.801466
45.964530 16.532912 -1.131848 -174.002306 -75.986749 -169.807250 0.000000 0.000000 0.000000 -11.825161 -21.120025 -19.779078 2.472331 9.787450 28.291123 0.871792 8.142117 -22.393368 0.040160 -1.293361 -3.556442 0.000000 0.000000 0.000000 21.404077 10.724346 -15.933619 -1.692522 -8.193901 23.304638 0.154810 -12.765327 -16.039209 -0.291370 3.466193 -9.580009 -4.615143 1.234916 -13.615375 0.458647 2.108335 -3.082159 3.438466 0.934962 4.183391 -4.164672 -1.422370 5.698744 3.581250 -2.017017 -7.060185 2.006342 -1.037287 -3.213845 0.000000 0.000000 0.000000 -4.064124 -1.948196 24.026845 7.258849 -12.344370 0.786061 8.842328 61.901671 -22.751408 0.000000 0.000000 0.000000 -7.125000 0.000000 0.000000 -20.424176 51.811569 3.548832 0.000000 0.000000 0.000000 1.954259 -0.099808 -3.852589 -9.940536 -16.646461 -1.457844 -15.312337 25.515776 -13.983103 0.000000 0.000000 0.000000 7.125000 0.000000 0.000000 8.279423 15.604296 5.809004
